<?xml version="1.0" encoding="UTF-8"?>
<svg xmlns="http://www.w3.org/2000/svg" xmlns:xlink="http://www.w3.org/1999/xlink" width="px" height="px" viewBox="0 0 75 75" version="1.1">
<g id="surface1">
<path style=" stroke:none;fill-rule:nonzero;fill:rgb(0%,0%,0%);fill-opacity:1;" d="M 72.910156 23.214844 C 72.640625 10.542969 64.460938 2.359375 51.785156 2.089844 C 48.773438 1.804688 26.230469 1.800781 23.214844 2.089844 C 10.542969 2.359375 2.359375 10.539062 2.089844 23.214844 C 1.804688 26.226562 1.800781 48.777344 2.089844 51.789062 C 2.335938 64.429688 10.570312 72.671875 23.214844 72.914062 C 26.917969 73.085938 28.148438 73.125 37.5 73.125 C 46.851562 73.125 48.082031 73.085938 51.785156 72.914062 C 55.242188 72.757812 57.933594 72.242188 60.511719 71.238281 C 68.613281 68.128906 72.730469 60.46875 72.910156 51.789062 C 73.195312 48.78125 73.199219 26.226562 72.910156 23.214844 Z M 70.734375 51.691406 C 70.511719 63.222656 63.222656 70.523438 51.6875 70.738281 C 48.742188 71.015625 26.257812 71.019531 23.3125 70.738281 C 11.78125 70.519531 4.484375 63.230469 4.265625 51.691406 C 4.101562 48.023438 4.058594 46.804688 4.058594 37.503906 C 4.324219 22.710938 2.339844 11.515625 15.277344 5.800781 C 17.625 4.886719 20.105469 4.414062 23.3125 4.265625 C 26.976562 4.101562 28.199219 4.0625 37.5 4.0625 C 46.800781 4.0625 48.023438 4.101562 51.6875 4.265625 C 54.894531 4.414062 57.375 4.886719 59.722656 5.800781 C 72.644531 11.492188 70.683594 22.726562 70.941406 37.503906 C 70.9375 46.808594 70.898438 48.027344 70.734375 51.691406 Z M 70.734375 51.691406 "/>
<path style=" stroke:none;fill-rule:nonzero;fill:rgb(0%,0%,0%);fill-opacity:1;" d="M 55.941406 23.96875 C 58.628906 23.96875 60.816406 21.773438 60.816406 19.074219 C 60.589844 12.597656 51.296875 12.601562 51.066406 19.074219 C 51.066406 21.773438 53.253906 23.96875 55.941406 23.96875 Z M 55.941406 16.222656 C 59.699219 16.339844 59.699219 21.8125 55.941406 21.929688 C 52.183594 21.808594 52.1875 16.339844 55.941406 16.222656 Z M 55.941406 16.222656 "/>
<path style=" stroke:none;fill-rule:nonzero;fill:rgb(0%,0%,0%);fill-opacity:1;" d="M 65.703125 50.382812 C 65.082031 50.355469 64.59375 50.820312 64.566406 51.421875 C 64.144531 60.183594 60.242188 64.128906 51.453125 64.535156 C 48.644531 64.808594 26.453125 64.808594 23.644531 64.535156 C 11.039062 64.195312 10.03125 55.417969 10.484375 44.625 C 10.503906 41.613281 10.558594 33.878906 10.53125 29.859375 C 10.527344 28.449219 8.371094 28.410156 8.351562 29.859375 C 8.390625 33.890625 8.328125 41.585938 8.304688 44.601562 C 8.160156 49.121094 8.269531 55.367188 9.617188 58.277344 C 14.253906 68.859375 24.320312 66.507812 37.550781 66.917969 C 53.746094 66.734375 65.554688 68.78125 66.746094 51.519531 C 66.769531 50.917969 66.304688 50.410156 65.703125 50.382812 Z M 65.703125 50.382812 "/>
<path style=" stroke:none;fill-rule:nonzero;fill:rgb(0%,0%,0%);fill-opacity:1;" d="M 65.332031 16.753906 C 60.832031 6.261719 50.496094 8.472656 37.398438 8.117188 C 21.460938 8.109375 9.027344 6.667969 8.203125 23.515625 C 8.175781 24.949219 10.28125 25.046875 10.382812 23.613281 C 10.800781 14.847656 14.703125 10.902344 23.496094 10.496094 C 26.324219 10.222656 48.472656 10.222656 51.300781 10.496094 C 60.089844 10.894531 63.996094 14.855469 64.417969 23.613281 C 64.613281 25.925781 64.726562 37.976562 64.414062 44.175781 C 64.390625 45.589844 66.519531 45.691406 66.59375 44.238281 C 66.59375 44.238281 66.796875 37.515625 66.796875 37.515625 C 66.796875 28.28125 66.761719 27.179688 66.59375 23.515625 C 66.433594 19.984375 65.835938 18.046875 65.332031 16.753906 Z M 65.332031 16.753906 "/>
<path style=" stroke:none;fill-rule:nonzero;fill:rgb(0%,0%,0%);fill-opacity:1;" d="M 18.75 37.5 C 18.75 47.839844 27.183594 56.25 37.546875 56.25 C 62.488281 55.21875 62.480469 19.777344 37.546875 18.75 C 27.183594 18.75 18.75 27.160156 18.75 37.5 Z M 54.167969 37.5 C 54.167969 46.640625 46.714844 54.078125 37.546875 54.078125 C 15.5 53.164062 15.503906 21.828125 37.546875 20.921875 C 46.714844 20.921875 54.167969 28.359375 54.167969 37.5 Z M 54.167969 37.5 "/>
<path style=" stroke:none;fill-rule:nonzero;fill:rgb(0%,0%,0%);fill-opacity:1;" d="M 37.53125 49.875 C 53.992188 49.195312 53.988281 25.800781 37.53125 25.125 C 30.691406 25.125 25.125 30.675781 25.125 37.5 C 25.125 44.324219 30.691406 49.875 37.53125 49.875 Z M 37.53125 27.265625 C 43.191406 27.265625 47.792969 31.859375 47.792969 37.5 C 47.792969 43.140625 43.191406 47.734375 37.53125 47.734375 C 23.921875 47.171875 23.925781 27.828125 37.53125 27.265625 Z M 37.53125 27.265625 "/>
</g>
</svg>
