<?xml version="1.0" encoding="UTF-8"?>
<svg xmlns="http://www.w3.org/2000/svg" xmlns:xlink="http://www.w3.org/1999/xlink" width="px" height="px" viewBox="0 0 75 75" version="1.1">
<g id="surface1">
<path style=" stroke:none;fill-rule:nonzero;fill:rgb(0%,0%,0%);fill-opacity:1;" d="M 71.339844 18.78125 C 70.742188 18.6875 70.1875 19.09375 70.089844 19.6875 L 63.511719 61.011719 C 63.507812 61.035156 63.503906 61.0625 63.5 61.085938 C 63.5 61.121094 63.171875 64.375 60.984375 64.890625 C 58.597656 65.449219 54.035156 62.679688 53.058594 61.902344 C 52.882812 61.769531 52.320312 61.402344 51.0625 60.578125 C 47.398438 58.183594 38.816406 52.578125 35.28125 49.585938 C 33.910156 48.480469 33.761719 46.964844 35.484375 45.570312 C 41.734375 39.84375 49.371094 32.570312 54.058594 27.882812 C 54.984375 26.957031 57.113281 24.21875 55.855469 22.703125 C 54.789062 21.410156 52.535156 22.121094 48.089844 25.148438 L 23.195312 41.917969 C 22.03125 42.738281 23.199219 44.511719 24.414062 43.730469 C 24.671875 44.097656 60.453125 18.042969 52.515625 26.339844 C 47.847656 31.007812 40.238281 38.253906 34.03125 43.945312 C 31.429688 46.152344 31.328125 49.066406 33.867188 51.25 C 37.507812 54.332031 45.855469 59.785156 49.867188 62.40625 C 50.808594 63.019531 51.617188 63.550781 51.722656 63.625 C 52.53125 64.273438 56.886719 67.140625 60.320312 67.140625 C 64.476562 67.257812 65.652344 62.332031 65.667969 61.324219 C 65.667969 61.324219 72.242188 20.03125 72.242188 20.03125 C 72.339844 19.4375 71.933594 18.878906 71.339844 18.78125 Z M 71.339844 18.78125 "/>
<path style=" stroke:none;fill-rule:nonzero;fill:rgb(0%,0%,0%);fill-opacity:1;" d="M 71.585938 8.667969 C 69.464844 7.074219 66.152344 8.296875 65.761719 8.445312 C 56.53125 12.269531 17.671875 28.363281 6.8125 32.804688 C 1.890625 34.539062 0.304688 37.890625 3.628906 40.21875 C 3.699219 40.261719 3.773438 40.296875 3.851562 40.324219 C 3.914062 40.34375 10.113281 42.46875 15.367188 44.042969 C 16.753906 44.429688 17.359375 42.394531 15.996094 41.957031 C 11.226562 40.527344 5.667969 38.640625 4.703125 38.3125 C 3.128906 37.109375 4.699219 36.058594 7.621094 34.828125 C 18.621094 30.332031 57.199219 14.351562 66.570312 10.472656 C 68.378906 9.855469 71.382812 9.359375 70.917969 12.890625 C 70.863281 13.488281 71.308594 14.019531 71.90625 14.070312 C 72.5 14.125 73.039062 13.679688 73.089844 13.082031 C 73.269531 11.035156 72.765625 9.550781 71.585938 8.667969 Z M 71.585938 8.667969 "/>
</g>
</svg>
