<?xml version="1.0" encoding="UTF-8"?>
<svg xmlns="http://www.w3.org/2000/svg" xmlns:xlink="http://www.w3.org/1999/xlink" width="px" height="px" viewBox="0 0 75 75" version="1.1">
<g id="surface1">
<path style=" stroke:none;fill-rule:nonzero;fill:rgb(0%,0%,0%);fill-opacity:1;" d="M 48.140625 1.875 L 26.929688 1.875 C 7.054688 1.875 1.90625 7.011719 1.90625 26.859375 L 1.90625 48.066406 C 0.96875 78.613281 20.027344 72.261719 42.976562 73.085938 C 44.339844 73.050781 44.339844 71.042969 42.976562 71.011719 C 42.976562 71.011719 26.894531 71.011719 26.894531 71.011719 C 8.050781 71.011719 3.984375 66.9375 3.984375 48.066406 L 3.984375 26.859375 C 3.984375 8.015625 8.058594 3.949219 26.929688 3.949219 C 73.847656 3.726562 71.261719 1.195312 71.050781 48.101562 C 71.050781 66.945312 66.976562 71.011719 48.105469 71.011719 C 46.742188 71.027344 46.746094 73.070312 48.105469 73.085938 C 67.980469 73.085938 73.125 67.949219 73.125 48.101562 L 73.125 26.894531 C 73.125 7.019531 67.988281 1.875 48.140625 1.875 Z M 48.140625 1.875 "/>
<path style=" stroke:none;fill-rule:nonzero;fill:rgb(0%,0%,0%);fill-opacity:1;" d="M 42.75 45.070312 C 43.90625 44.789062 48.214844 49.066406 49.402344 50.542969 C 50.933594 52.25 51.859375 53.28125 53.660156 53.28125 L 58.703125 53.28125 C 60.105469 53.28125 60.8125 52.726562 61.15625 52.261719 C 62.652344 49.847656 59.9375 47.082031 56.972656 43.546875 C 55.957031 42.226562 53.957031 40.78125 53.273438 39.492188 C 56.855469 33.609375 64.714844 24.054688 57.984375 23.839844 C 57.984375 23.839844 52.941406 23.839844 52.941406 23.839844 C 51.910156 23.839844 50.523438 24.199219 49.785156 25.925781 C 49.757812 25.988281 47.25 32.074219 43.816406 35.882812 C 42.832031 36.800781 42.371094 37.394531 42.453125 36.726562 C 42.453125 36.726562 42.453125 30.226562 42.453125 30.226562 C 42.433594 28.871094 40.402344 28.859375 40.378906 30.226562 C 40.378906 30.226562 40.378906 36.726562 40.378906 36.726562 C 40.378906 38.429688 41.328125 39.203125 42.207031 39.203125 C 46.65625 38.820312 51.808594 26.441406 51.695312 26.726562 C 51.917969 26.214844 52.191406 25.917969 52.941406 25.917969 L 57.980469 25.917969 C 58.378906 25.917969 58.566406 25.988281 58.566406 25.964844 C 58.574219 25.996094 58.582031 26.144531 58.5 26.417969 C 58.554688 26.796875 56.859375 30.683594 51.859375 37.78125 C 49.625 40.527344 53.761719 42.765625 55.402344 44.902344 C 56.550781 46.265625 61.375 51.519531 58.703125 51.210938 C 58.703125 51.210938 53.660156 51.210938 53.660156 51.210938 C 52.824219 51.210938 52.375 50.75 50.945312 49.160156 C 48.746094 46.542969 44.609375 42.683594 42.75 43 C 40.667969 43 40.378906 44.328125 40.378906 45.765625 L 40.378906 50.300781 C 40.378906 50.847656 40.378906 51.210938 37.816406 51.210938 C 32.558594 51.210938 27.128906 47.929688 23.28125 42.425781 C 16.949219 33.578125 15.515625 27.136719 15.515625 26.316406 C 15.515625 25.746094 15.050781 25.28125 14.480469 25.28125 C 11.390625 25.183594 16.082031 35.929688 21.585938 43.621094 C 25.816406 49.667969 31.882812 53.28125 37.816406 53.28125 C 40.597656 53.28125 42.453125 52.773438 42.453125 50.300781 L 42.453125 45.761719 C 42.496094 45.199219 42.355469 45.03125 42.75 45.070312 Z M 42.75 45.070312 "/>
<path style=" stroke:none;fill-rule:nonzero;fill:rgb(0%,0%,0%);fill-opacity:1;" d="M 24.488281 26.417969 C 24.015625 25.171875 23.339844 23.839844 21.25 23.839844 L 16.992188 23.839844 C 15.636719 23.863281 15.621094 25.890625 16.992188 25.914062 C 16.992188 25.914062 21.25 25.914062 21.25 25.914062 C 21.894531 25.914062 22.097656 25.96875 22.535156 27.121094 C 24.503906 32.910156 28.949219 41.289062 31.835938 41.289062 C 33.8125 41.289062 33.8125 39.300781 33.8125 38.34375 L 33.808594 30.859375 C 33.265625 24.351562 27.046875 26.15625 40.277344 25.941406 C 40.292969 25.96875 40.378906 26.144531 40.378906 26.714844 C 40.398438 28.078125 42.433594 28.078125 42.453125 26.714844 C 42.453125 24.808594 41.621094 23.839844 39.976562 23.839844 L 32.054688 23.839844 C 29.570312 23.9375 29.121094 26.53125 30.554688 27.910156 C 31.058594 28.535156 31.625 29.242188 31.734375 30.929688 C 31.722656 31.300781 31.777344 39.03125 31.695312 39.140625 C 30.460938 38.421875 26.894531 33.492188 24.488281 26.417969 Z M 24.488281 26.417969 "/>
</g>
</svg>
